<svg id="visual" viewBox="0 0 1920 1080" width="1920" height="1080" xmlns="http://www.w3.org/2000/svg" xmlns:xlink="http://www.w3.org/1999/xlink" version="1.1"><path d="M0 120L83 120L83 131L167 131L167 87L250 87L250 77L334 77L334 87L417 87L417 33L501 33L501 141L584 141L584 12L668 12L668 98L751 98L751 87L835 87L835 33L918 33L918 66L1002 66L1002 23L1085 23L1085 44L1169 44L1169 120L1252 120L1252 55L1336 55L1336 12L1419 12L1419 120L1503 120L1503 44L1586 44L1586 77L1670 77L1670 66L1753 66L1753 120L1837 120L1837 66L1920 66L1920 66L1920 0L1920 0L1837 0L1837 0L1753 0L1753 0L1670 0L1670 0L1586 0L1586 0L1503 0L1503 0L1419 0L1419 0L1336 0L1336 0L1252 0L1252 0L1169 0L1169 0L1085 0L1085 0L1002 0L1002 0L918 0L918 0L835 0L835 0L751 0L751 0L668 0L668 0L584 0L584 0L501 0L501 0L417 0L417 0L334 0L334 0L250 0L250 0L167 0L167 0L83 0L83 0L0 0Z" fill="#69dbfa"></path><path d="M0 239L83 239L83 271L167 271L167 314L250 314L250 239L334 239L334 368L417 368L417 195L501 195L501 325L584 325L584 131L668 131L668 163L751 163L751 217L835 217L835 131L918 131L918 152L1002 152L1002 33L1085 33L1085 141L1169 141L1169 239L1252 239L1252 120L1336 120L1336 195L1419 195L1419 163L1503 163L1503 368L1586 368L1586 206L1670 206L1670 249L1753 249L1753 195L1837 195L1837 163L1920 163L1920 282L1920 64L1920 64L1837 64L1837 118L1753 118L1753 64L1670 64L1670 75L1586 75L1586 42L1503 42L1503 118L1419 118L1419 10L1336 10L1336 53L1252 53L1252 118L1169 118L1169 42L1085 42L1085 21L1002 21L1002 64L918 64L918 31L835 31L835 85L751 85L751 96L668 96L668 10L584 10L584 139L501 139L501 31L417 31L417 85L334 85L334 75L250 75L250 85L167 85L167 129L83 129L83 118L0 118Z" fill="#4dcef8"></path><path d="M0 411L83 411L83 390L167 390L167 336L250 336L250 455L334 455L334 552L417 552L417 336L501 336L501 390L584 390L584 195L668 195L668 368L751 368L751 347L835 347L835 260L918 260L918 293L1002 293L1002 66L1085 66L1085 282L1169 282L1169 325L1252 325L1252 163L1336 163L1336 260L1419 260L1419 282L1503 282L1503 368L1586 368L1586 347L1670 347L1670 357L1753 357L1753 249L1837 249L1837 336L1920 336L1920 325L1920 280L1920 161L1837 161L1837 193L1753 193L1753 247L1670 247L1670 204L1586 204L1586 366L1503 366L1503 161L1419 161L1419 193L1336 193L1336 118L1252 118L1252 237L1169 237L1169 139L1085 139L1085 31L1002 31L1002 150L918 150L918 129L835 129L835 215L751 215L751 161L668 161L668 129L584 129L584 323L501 323L501 193L417 193L417 366L334 366L334 237L250 237L250 312L167 312L167 269L83 269L83 237L0 237Z" fill="#2fc0f7"></path><path d="M0 465L83 465L83 411L167 411L167 379L250 379L250 487L334 487L334 595L417 595L417 336L501 336L501 455L584 455L584 239L668 239L668 379L751 379L751 401L835 401L835 325L918 325L918 325L1002 325L1002 141L1085 141L1085 303L1169 303L1169 401L1252 401L1252 228L1336 228L1336 271L1419 271L1419 325L1503 325L1503 411L1586 411L1586 401L1670 401L1670 368L1753 368L1753 325L1837 325L1837 401L1920 401L1920 336L1920 323L1920 334L1837 334L1837 247L1753 247L1753 355L1670 355L1670 345L1586 345L1586 366L1503 366L1503 280L1419 280L1419 258L1336 258L1336 161L1252 161L1252 323L1169 323L1169 280L1085 280L1085 64L1002 64L1002 291L918 291L918 258L835 258L835 345L751 345L751 366L668 366L668 193L584 193L584 388L501 388L501 334L417 334L417 550L334 550L334 453L250 453L250 334L167 334L167 388L83 388L83 409L0 409Z" fill="#02b2f4"></path><path d="M0 509L83 509L83 476L167 476L167 444L250 444L250 498L334 498L334 627L417 627L417 368L501 368L501 498L584 498L584 303L668 303L668 433L751 433L751 476L835 476L835 347L918 347L918 357L1002 357L1002 163L1085 163L1085 379L1169 379L1169 401L1252 401L1252 239L1336 239L1336 368L1419 368L1419 379L1503 379L1503 509L1586 509L1586 465L1670 465L1670 368L1753 368L1753 411L1837 411L1837 455L1920 455L1920 455L1920 334L1920 399L1837 399L1837 323L1753 323L1753 366L1670 366L1670 399L1586 399L1586 409L1503 409L1503 323L1419 323L1419 269L1336 269L1336 226L1252 226L1252 399L1169 399L1169 301L1085 301L1085 139L1002 139L1002 323L918 323L918 323L835 323L835 399L751 399L751 377L668 377L668 237L584 237L584 453L501 453L501 334L417 334L417 593L334 593L334 485L250 485L250 377L167 377L167 409L83 409L83 463L0 463Z" fill="#00a3f1"></path><path d="M0 606L83 606L83 768L167 768L167 509L250 509L250 541L334 541L334 833L417 833L417 617L501 617L501 779L584 779L584 401L668 401L668 465L751 465L751 487L835 487L835 455L918 455L918 509L1002 509L1002 498L1085 498L1085 606L1169 606L1169 606L1252 606L1252 455L1336 455L1336 757L1419 757L1419 822L1503 822L1503 606L1586 606L1586 552L1670 552L1670 573L1753 573L1753 509L1837 509L1837 541L1920 541L1920 649L1920 453L1920 453L1837 453L1837 409L1753 409L1753 366L1670 366L1670 463L1586 463L1586 507L1503 507L1503 377L1419 377L1419 366L1336 366L1336 237L1252 237L1252 399L1169 399L1169 377L1085 377L1085 161L1002 161L1002 355L918 355L918 345L835 345L835 474L751 474L751 431L668 431L668 301L584 301L584 496L501 496L501 366L417 366L417 625L334 625L334 496L250 496L250 442L167 442L167 474L83 474L83 507L0 507Z" fill="#0094eb"></path><path d="M0 681L83 681L83 876L167 876L167 552L250 552L250 563L334 563L334 833L417 833L417 714L501 714L501 811L584 811L584 455L668 455L668 498L751 498L751 509L835 509L835 552L918 552L918 606L1002 606L1002 519L1085 519L1085 638L1169 638L1169 671L1252 671L1252 487L1336 487L1336 757L1419 757L1419 822L1503 822L1503 617L1586 617L1586 552L1670 552L1670 595L1753 595L1753 573L1837 573L1837 573L1920 573L1920 757L1920 647L1920 539L1837 539L1837 507L1753 507L1753 571L1670 571L1670 550L1586 550L1586 604L1503 604L1503 820L1419 820L1419 755L1336 755L1336 453L1252 453L1252 604L1169 604L1169 604L1085 604L1085 496L1002 496L1002 507L918 507L918 453L835 453L835 485L751 485L751 463L668 463L668 399L584 399L584 777L501 777L501 615L417 615L417 831L334 831L334 539L250 539L250 507L167 507L167 766L83 766L83 604L0 604Z" fill="#0084e5"></path><path d="M0 746L83 746L83 951L167 951L167 660L250 660L250 649L334 649L334 833L417 833L417 822L501 822L501 822L584 822L584 541L668 541L668 606L751 606L751 606L835 606L835 617L918 617L918 714L1002 714L1002 541L1085 541L1085 660L1169 660L1169 681L1252 681L1252 573L1336 573L1336 854L1419 854L1419 854L1503 854L1503 703L1586 703L1586 606L1670 606L1670 703L1753 703L1753 595L1837 595L1837 584L1920 584L1920 843L1920 755L1920 571L1837 571L1837 571L1753 571L1753 593L1670 593L1670 550L1586 550L1586 615L1503 615L1503 820L1419 820L1419 755L1336 755L1336 485L1252 485L1252 669L1169 669L1169 636L1085 636L1085 517L1002 517L1002 604L918 604L918 550L835 550L835 507L751 507L751 496L668 496L668 453L584 453L584 809L501 809L501 712L417 712L417 831L334 831L334 561L250 561L250 550L167 550L167 874L83 874L83 679L0 679Z" fill="#0074dd"></path><path d="M0 757L83 757L83 973L167 973L167 692L250 692L250 681L334 681L334 919L417 919L417 822L501 822L501 854L584 854L584 671L668 671L668 606L751 606L751 617L835 617L835 671L918 671L918 714L1002 714L1002 606L1085 606L1085 681L1169 681L1169 735L1252 735L1252 627L1336 627L1336 941L1419 941L1419 941L1503 941L1503 703L1586 703L1586 714L1670 714L1670 779L1753 779L1753 703L1837 703L1837 735L1920 735L1920 984L1920 841L1920 582L1837 582L1837 593L1753 593L1753 701L1670 701L1670 604L1586 604L1586 701L1503 701L1503 852L1419 852L1419 852L1336 852L1336 571L1252 571L1252 679L1169 679L1169 658L1085 658L1085 539L1002 539L1002 712L918 712L918 615L835 615L835 604L751 604L751 604L668 604L668 539L584 539L584 820L501 820L501 820L417 820L417 831L334 831L334 647L250 647L250 658L167 658L167 949L83 949L83 744L0 744Z" fill="#0063d4"></path><path d="M0 833L83 833L83 1049L167 1049L167 725L250 725L250 703L334 703L334 984L417 984L417 865L501 865L501 941L584 941L584 735L668 735L668 692L751 692L751 703L835 703L835 725L918 725L918 746L1002 746L1002 617L1085 617L1085 768L1169 768L1169 822L1252 822L1252 714L1336 714L1336 1005L1419 1005L1419 1027L1503 1027L1503 800L1586 800L1586 746L1670 746L1670 800L1753 800L1753 735L1837 735L1837 800L1920 800L1920 995L1920 982L1920 733L1837 733L1837 701L1753 701L1753 777L1670 777L1670 712L1586 712L1586 701L1503 701L1503 939L1419 939L1419 939L1336 939L1336 625L1252 625L1252 733L1169 733L1169 679L1085 679L1085 604L1002 604L1002 712L918 712L918 669L835 669L835 615L751 615L751 604L668 604L668 669L584 669L584 852L501 852L501 820L417 820L417 917L334 917L334 679L250 679L250 690L167 690L167 971L83 971L83 755L0 755Z" fill="#0052c9"></path><path d="M0 919L83 919L83 1070L167 1070L167 779L250 779L250 768L334 768L334 984L417 984L417 876L501 876L501 973L584 973L584 757L668 757L668 725L751 725L751 779L835 779L835 811L918 811L918 800L1002 800L1002 660L1085 660L1085 811L1169 811L1169 908L1252 908L1252 725L1336 725L1336 1070L1419 1070L1419 1059L1503 1059L1503 833L1586 833L1586 822L1670 822L1670 800L1753 800L1753 735L1837 735L1837 843L1920 843L1920 1016L1920 993L1920 798L1837 798L1837 733L1753 733L1753 798L1670 798L1670 744L1586 744L1586 798L1503 798L1503 1025L1419 1025L1419 1003L1336 1003L1336 712L1252 712L1252 820L1169 820L1169 766L1085 766L1085 615L1002 615L1002 744L918 744L918 723L835 723L835 701L751 701L751 690L668 690L668 733L584 733L584 939L501 939L501 863L417 863L417 982L334 982L334 701L250 701L250 723L167 723L167 1047L83 1047L83 831L0 831Z" fill="#0b40bd"></path><path d="M0 1081L83 1081L83 1081L167 1081L167 1081L250 1081L250 1081L334 1081L334 1081L417 1081L417 1081L501 1081L501 1081L584 1081L584 1081L668 1081L668 1081L751 1081L751 1081L835 1081L835 1081L918 1081L918 1081L1002 1081L1002 1081L1085 1081L1085 1081L1169 1081L1169 1081L1252 1081L1252 1081L1336 1081L1336 1081L1419 1081L1419 1081L1503 1081L1503 1081L1586 1081L1586 1081L1670 1081L1670 1081L1753 1081L1753 1081L1837 1081L1837 1081L1920 1081L1920 1081L1920 1014L1920 841L1837 841L1837 733L1753 733L1753 798L1670 798L1670 820L1586 820L1586 831L1503 831L1503 1057L1419 1057L1419 1068L1336 1068L1336 723L1252 723L1252 906L1169 906L1169 809L1085 809L1085 658L1002 658L1002 798L918 798L918 809L835 809L835 777L751 777L751 723L668 723L668 755L584 755L584 971L501 971L501 874L417 874L417 982L334 982L334 766L250 766L250 777L167 777L167 1068L83 1068L83 917L0 917Z" fill="#232cb0"></path></svg>