<svg id="visual" viewBox="0 0 1920 1080" width="1920" height="1080" xmlns="http://www.w3.org/2000/svg" xmlns:xlink="http://www.w3.org/1999/xlink" version="1.1"><rect x="0" y="0" width="1920" height="1080" fill="#002233"></rect><path d="M0 630L32 669.3C64 708.7 128 787.3 192 833.8C256 880.3 320 894.7 384 884.7C448 874.7 512 840.3 576 798.7C640 757 704 708 768 724.7C832 741.3 896 823.7 960 864.7C1024 905.7 1088 905.3 1152 870.3C1216 835.3 1280 765.7 1344 717.5C1408 669.3 1472 642.7 1536 655.2C1600 667.7 1664 719.3 1728 768.3C1792 817.3 1856 863.7 1888 886.8L1920 910L1920 1081L1888 1081C1856 1081 1792 1081 1728 1081C1664 1081 1600 1081 1536 1081C1472 1081 1408 1081 1344 1081C1280 1081 1216 1081 1152 1081C1088 1081 1024 1081 960 1081C896 1081 832 1081 768 1081C704 1081 640 1081 576 1081C512 1081 448 1081 384 1081C320 1081 256 1081 192 1081C128 1081 64 1081 32 1081L0 1081Z" fill="#0066FF" stroke-linecap="round" stroke-linejoin="miter"></path></svg>